<svg xmlns="http://www.w3.org/2000/svg" viewBox="0 0 512 512">
  <rect width="512" height="512" rx="108" fill="#f7f6ef"/>
  <path d="M92 340c64-12 60-76 96-122 47-61 153-58 194 12 32 54 11 134 42 184-34-4-50-26-71-43-22 21-48 41-85 42-72 2-102-56-176-73Z" fill="#292726"/>
  <path d="M174 304c16-86 43-129 91-129 57 0 87 50 88 132 0 37-20 65-48 65-20 0-33-14-46-14-16 0-32 28-57 21-27-7-35-38-28-75Z" fill="#fffef7"/>
  <circle cx="242" cy="264" r="17" fill="#292726"/>
  <circle cx="303" cy="264" r="17" fill="#292726"/>
  <path d="M241 318c25 18 52 17 73 0" fill="none" stroke="#292726" stroke-width="12" stroke-linecap="round"/>
</svg>
