<svg xmlns="http://www.w3.org/2000/svg" viewBox="0 0 512 512">
  <rect width="512" height="512" rx="112" fill="#f7f6ef"/>
  <path d="M92 148c61-31 126-44 196-39 49 4 93 18 132 43v210c-40-24-84-38-132-42-70-5-135 8-196 39V148Z" fill="#ffffff"/>
  <path d="M92 148c61-31 126-44 196-39 49 4 93 18 132 43v210c-40-24-84-38-132-42-70-5-135 8-196 39V148Z" fill="none" stroke="#292726" stroke-width="18" stroke-linejoin="round"/>
  <path d="M176 173v147M288 112v206" stroke="#d7d3c6" stroke-width="16" stroke-linecap="round"/>
  <path d="M334 222c0 59-78 145-78 145s-78-86-78-145a78 78 0 1 1 156 0Z" fill="#292726"/>
  <circle cx="256" cy="222" r="34" fill="#fffdf6"/>
  <path d="M237 422h86" stroke="#292726" stroke-width="18" stroke-linecap="round"/>
  <path d="M356 381h44" stroke="#68a287" stroke-width="18" stroke-linecap="round"/>
</svg>
