<?xml version="1.0" encoding="UTF-8" standalone="no"?>
<!DOCTYPE svg PUBLIC "-//W3C//DTD SVG 1.1//EN" "http://www.w3.org/Graphics/SVG/1.1/DTD/svg11.dtd">
<svg width="100%" height="100%" viewBox="0 0 1253 422" version="1.1" xmlns="http://www.w3.org/2000/svg" xmlns:xlink="http://www.w3.org/1999/xlink" xml:space="preserve" xmlns:serif="http://www.serif.com/" style="fill-rule:evenodd;clip-rule:evenodd;stroke-linejoin:round;stroke-miterlimit:2;">
    <g transform="matrix(1,0,0,1,-100.179709,-325.84691)">
        <g id="Background" transform="matrix(1.414062,0,0,1.414062,0,0)">
            <g>
                <path d="M126.683,436.318C115.971,443.319 115.549,442.611 105.874,450.932C104.24,452.338 104.207,452.203 102.522,453.487C98.244,447.734 98.211,447.773 97.85,447.266C74.591,414.586 69.047,368.03 71.311,343.482C80.459,244.272 190.455,195.347 265.851,259.091C330.907,314.094 316.806,436.174 247.277,480.235C241.569,469.237 241.288,469.465 235.485,458.445C238.745,456.776 238.811,456.856 240.984,453.86C243.587,450.268 250.293,461.638 258.263,452.286C266.047,443.152 262.675,417.057 247.703,424.852C243.392,427.095 243.52,431.391 240.126,427.894C232.79,420.335 225.9,429.249 225.159,430.208C222.978,433.029 219.148,421.739 209.715,426.85C206.121,428.798 205.759,432.992 203.818,429.341C198.526,419.38 189.995,423.39 186.734,426.851C183.818,429.946 183.62,417.696 173.557,418.915C168.987,419.469 167.493,424.654 166.017,420.738C162.125,410.411 153.203,413.444 150.606,414.715C146.864,416.548 147.53,413.903 145.199,410.745C143.495,408.436 139.953,407.046 139.435,406.843C132.06,406.473 131.262,411.296 129.755,408.346C126.583,402.138 127.445,400.255 120.497,399.549C104.449,397.92 102.208,437.159 120.426,431.219C123.018,430.374 123.465,429.366 124.079,430.754C125.341,433.601 125.065,433.671 126.683,436.318ZM261.365,292.907C238.546,289.058 158.376,302.069 104.726,337.824C102.989,338.982 103.229,339.099 101.863,340.683C101.866,343.748 102.342,344.087 105.367,344.192C123.707,333.518 155.137,313.112 219.527,301.65C239.86,298.03 259.518,298.526 261.217,298.01C263.115,295.686 263.332,295.228 261.365,292.907ZM248.405,310.652C242.04,308.933 219.175,312.266 205.445,315.301C202.349,315.986 203.69,320.229 203.186,323.452C199.914,344.363 188.488,340.587 188.595,345.496C188.938,361.192 175.269,361.663 170.932,356.141C160.939,343.416 147.596,355.153 149.614,366.481C152.467,382.494 165.105,379.382 165.712,383.457C167.897,398.118 157.074,402.892 155.812,403.672C162.597,409.067 185.879,413.537 188.579,414.056C226.205,421.28 246.336,421.306 252.039,402.362C254.295,394.869 256.441,390.916 251.402,392.058C242.295,394.122 230.114,387.537 229.662,384.469C228.818,378.741 237.173,386.464 245.53,387.039C255.123,387.7 256.11,385.956 256.141,380.495C256.197,370.63 261.932,375.273 267.569,373.724C278.405,370.748 268.919,359.336 257.84,339.314C254.616,333.486 259.756,329.943 248.405,310.652Z" style="fill:rgb(9,69,109);"/>
                <path d="M371.337,376.705C370.954,376.692 370.882,375.933 370.5,375.92C369.475,375.884 369.976,383.294 369.97,383.497C369.485,399.006 371.4,432.111 368.698,437.608C365.993,443.109 350.997,440.634 349.806,440C345.755,437.844 346.406,436.535 346.394,378.5C346.386,338.822 345.035,333.807 353.451,333.074C370.657,331.576 370.889,336.601 376.91,345.218C377.469,346.018 383.118,354.1 383.909,355.208C412.721,395.542 411.837,396.088 414.586,399.4C416.768,402.029 415.864,393.39 415.924,385.512C416.267,340.476 413.729,333.926 422.453,333.093C439.594,331.458 439.405,337.776 439.864,339.396C440.616,342.048 440.127,425.043 440.083,432.491C440.006,445.652 417.977,440.38 416.587,439.377C412.204,436.214 372.023,377.805 371.337,376.705Z" style="fill:rgb(1,21,36);"/>
                <path d="M126.683,436.318C136.29,445.255 139.885,435.947 142.396,438.586C142.984,439.204 144.066,445.513 152.497,446.532C156.735,447.044 160.114,442.729 161.408,444.566C165.678,450.625 165.056,452.431 172.485,452.778C178.427,453.055 179.712,447.179 182.955,452.179C185.242,455.705 192.226,459.59 199.183,455.02C204.407,451.588 203.46,457.73 209.55,459.307C219.554,461.898 220.745,451.419 223.868,455.094C228.061,460.028 234.539,458.647 235.485,458.445C241.288,469.465 241.569,469.237 247.277,480.235C241.093,484.358 241.214,484.426 234.709,487.882C213.6,499.097 223.883,522.662 219.216,527.218C215.973,530.384 211.893,530.537 164.421,502.625C123.394,478.18 113.091,466.947 102.522,453.487C104.207,452.203 104.24,452.338 105.874,450.932C115.549,442.611 115.971,443.319 126.683,436.318ZM187.141,495.562C184.958,492.317 183.022,488.372 170.287,475.714C140.373,445.98 116.344,454.107 115.481,457.494C114.039,463.154 125.583,457.443 136.599,461.18C170.459,472.664 178.066,502.906 187.141,495.562ZM229.555,474.462C226.662,470.778 226.924,470.318 225.546,470.166C220.179,469.574 226.501,477.655 226.901,478.166C227.126,478.453 233.641,481.975 229.555,474.462ZM192.589,481.475C185.158,469.345 168.849,461.149 177.953,471.043C189.528,483.623 189.268,483.85 190.39,484.824C192.096,483.474 192.308,483.595 192.589,481.475Z" style="fill:rgb(2,31,52);"/>
                <path d="M755.078,368.504C752.162,419.554 701.542,400.509 700.023,407.384C698.456,414.48 704.351,440.522 693.525,440.805C681.527,441.118 676.15,442.106 676.074,431.5C676.022,424.058 675.438,341.907 676.405,338.471C678.166,332.21 680.297,332.79 713.499,332.92C754.87,333.082 754.806,364.638 755.078,368.504ZM704.492,384.057C708.892,383.979 727.964,386.507 730.157,372.427C733.365,351.827 709.32,354.604 701.538,354.79C699.314,354.843 699.899,359.885 699.907,375.499C699.91,381.481 698.449,384.045 704.492,384.057Z" style="fill:rgb(1,21,37);"/>
                <path d="M756.072,403.507C758.621,357.529 801.718,358.312 812.49,370.513C815.946,374.428 813.659,365.582 819.547,364.85C820.364,364.749 830.841,364.746 831.457,364.844C838.27,365.92 837.117,373.962 837.119,374.502C837.424,431.669 837.929,431.755 836.675,436.558C836.317,437.929 835.114,442.537 819.466,440.752C813.733,440.097 815.597,431.853 812.64,434.663C810.689,436.516 798.701,447.908 779.388,439.757C755.337,429.607 756.27,405.422 756.072,403.507ZM814.216,403.497C811.909,376.403 786.098,382.421 781.31,394.423C770.454,421.632 810.905,433.171 814.216,403.497Z" style="fill:rgb(2,21,37);"/>
                <path d="M563.519,442.167C515.832,435.627 522.757,370.571 559.576,363.912C580.88,360.059 587.485,374.197 588.305,370.427C589.588,364.518 591.85,364.379 604.474,364.827C604.944,364.844 608.371,365.297 609.665,368.431C611.519,372.921 610.454,428.296 610.354,433.501C610.185,442.271 602.418,441.049 593.471,440.807C587.254,440.639 589.141,431.904 586.245,435.03C579.807,441.979 565.425,442.145 563.519,442.167ZM553.217,403.508C557.131,435.784 599.49,418.059 585.197,392.686C579.369,382.342 554.913,377.674 553.217,403.508Z" style="fill:rgb(1,21,36);"/>
                <path d="M261.217,298.01C257.191,307.861 255.127,308.154 248.405,310.652C242.04,308.933 219.175,312.266 205.445,315.301C202.349,315.986 203.69,320.229 203.186,323.452C199.914,344.363 188.488,340.587 188.595,345.496C188.938,361.192 175.269,361.663 170.932,356.141C160.939,343.416 147.596,355.153 149.614,366.481C152.467,382.494 165.105,379.382 165.712,383.457C167.897,398.118 157.074,402.892 155.812,403.672C154.705,404.014 146.843,406.44 141.5,405.881C139.709,405.693 140.091,406.537 139.435,406.843C138.664,406.154 139.337,405.827 138.5,405.079C138.349,404.944 138.307,405.126 136.221,403.971C133.986,402.734 132.122,400.592 131.819,400.244C127.722,395.538 130.785,391.852 124.506,391.354C118.007,390.838 112.483,385.756 110.722,380.438C105.999,366.174 118.862,359.207 118.857,356.508C118.844,350.114 118.099,350.18 117.662,350.101C110.654,348.831 110.066,349.568 105.367,344.192C123.707,333.518 155.137,313.112 219.527,301.65C239.86,298.03 259.518,298.526 261.217,298.01Z" style="fill:rgb(1,22,38);"/>
                <path d="M261.365,292.907C238.546,289.058 158.376,302.069 104.726,337.824C102.989,338.982 103.229,339.099 101.863,340.683C93.833,330.717 96.72,324.498 104.364,315.385C128.49,286.622 130.364,284.204 160.433,277.218C225.444,262.112 226.513,261.933 239.251,267.975C259.888,277.764 265.721,281.22 261.365,292.907Z" style="fill:rgb(0,22,38);"/>
                <path d="M524.085,401.473C522.7,410.862 519.084,408.842 498.503,408.902C473.42,408.975 470.803,408.11 471.839,411.417C473.154,415.61 479.794,424.803 494.397,422.02C504.919,420.015 507.239,411.878 512.392,417.599C519.008,424.943 524.343,428.522 512.261,436.1C481.533,455.374 436.846,429.286 450.801,388.592C463.184,352.477 521.616,354.102 524.1,398.526C524.155,399.507 524.03,400.492 524.085,401.473ZM483.494,393.947C500.946,394.159 501.592,393.778 501.494,392.5C500.646,381.35 478.699,375.726 472.134,391.365C470.624,394.962 476.643,394.097 483.494,393.947Z" style="fill:rgb(1,20,35);"/>
                <path d="M876.505,381.06C875.835,381.17 869.986,382.127 868.801,384.627C863.163,396.519 903.49,386.811 906.569,415.496C909.414,441.997 869.182,450.88 847.589,433.391C840.493,427.643 852.612,415.643 855.501,415.638C856.983,415.635 876.761,429.455 883.256,420.345C890.638,409.992 857.039,413.44 848.746,397.385C837.164,374.965 866.241,351.959 898.383,368.709C907.703,373.566 902.756,378.045 899.143,383.242C891.782,393.828 889.473,382.497 876.505,381.06Z" style="fill:rgb(2,21,36);"/>
                <path d="M941.487,442.184C909.115,441.721 913.25,420.52 913.244,380.499C913.238,347.942 912.007,341.454 919.483,341.274C928.804,341.051 936.215,339.81 936.372,348.504C936.507,356.034 935.255,364.572 938.48,364.686C944.709,364.907 954.378,362.421 954.544,371.501C954.727,381.558 955.484,385.042 945.496,384.932C944.793,384.924 937.312,384.842 936.743,385.663C936.674,385.762 936.253,385.763 936.384,410.5C936.469,426.635 950.793,415.898 954.055,421.786C954.107,421.88 957.79,433.628 956.199,436.332C953.185,441.456 942.893,441.996 941.487,442.184Z" style="fill:rgb(1,20,35);"/>
                <path d="M641.807,373.419C642.06,373.619 642.314,373.819 642.567,374.018C642.736,373.866 643.064,374.319 643.233,374.167C643.274,374.129 644.791,369.485 651.63,365.768C652.673,365.2 668.127,358.407 668.325,369.504C668.485,378.482 669.441,385.693 663.526,385.858C638.241,386.563 643.027,398.772 642.659,433.507C642.593,439.746 638.259,441.825 625.472,440.797C618.535,440.239 619.809,436.023 619.784,392.499C619.773,373.209 618.066,364.837 626.505,364.778C637.409,364.702 642.182,362.466 641.807,373.419Z" style="fill:rgb(2,20,35);"/>
                <path d="M241.088,345.595C243.598,365.351 230.297,360.011 228.654,353.458C225.688,341.626 236.848,332.709 241.088,345.595Z" style="fill:rgb(3,20,33);"/>
                <path d="M167.15,436.42C167.414,435.597 169.798,428.182 171.546,426.549C181.583,417.176 183.366,450.656 170.355,445.858C166.675,444.502 167.103,437.216 167.15,436.42Z" style="fill:rgb(10,72,114);"/>
                <path d="M197.852,446.705C190.218,457.658 182.373,445.938 189.815,432.687C194.43,424.469 202.421,433.77 198.463,445.485C198.428,445.588 198.463,445.485 197.852,446.705Z" style="fill:rgb(9,70,111);"/>
                <path d="M147.955,433.489C149.096,416.849 158.658,417.987 160.357,422.558C164.443,433.553 150.369,450.403 147.955,433.489Z" style="fill:rgb(10,70,110);"/>
                <path d="M206.769,444.5C207.401,440.945 207.426,441.049 208.658,437.547C212.499,426.629 222.539,432.968 218.679,445.55C215.454,456.06 207.236,455.073 206.769,444.5Z" style="fill:rgb(11,71,111);"/>
                <path d="M142.089,419.539C143.026,437.724 130.482,435.48 129.862,428.464C128.873,417.265 138.44,404.325 142.089,419.539Z" style="fill:rgb(8,70,110);"/>
                <path d="M229.429,434.447C237.581,425.026 240.796,440.905 237.187,448.351C232.078,458.889 221.702,449.62 229.429,434.447Z" style="fill:rgb(9,72,113);"/>
                <path d="M115.785,408.675C123.266,399.896 127.93,414.022 122.211,422.299C115.831,431.532 110.462,420.603 115.785,408.675Z" style="fill:rgb(10,72,112);"/>
                <path d="M256.093,441.429C255.882,442.157 253.858,449.133 251.593,449.763C242.336,452.339 245.339,424.685 254.476,430.531C257.495,432.463 256.229,440.559 256.093,441.429Z" style="fill:rgb(10,70,111);"/>
                <path d="M232.479,329.09C227.691,329.958 226.099,329.253 220.15,335.129C217.229,338.014 213.79,334.142 218.591,329.587C232.406,316.482 247.843,327.476 240.643,329.888C238.78,330.512 238.844,329.391 232.479,329.09Z" style="fill:rgb(6,20,34);"/>
                <path d="M194.393,486.496C197.824,486.247 197.705,486.795 200.37,488.885C202.74,490.743 199.156,494.048 193.221,489.931C194.103,488.277 194.25,488.37 194.393,486.496Z" style="fill:rgb(4,46,73);"/>
                <path d="M192.589,481.475C194.297,483.682 194.311,483.715 194.393,486.496C194.25,488.37 194.103,488.277 193.221,489.931L192.231,489.66C190.872,485.913 190.95,485.947 190.39,484.824C192.096,483.474 192.308,483.595 192.589,481.475Z" style="fill:rgb(37,62,83);"/>
                <path d="M146.875,454.562C143.007,457.655 144.336,453.635 144.481,453.483C144.599,453.359 145.649,452.252 146.614,453.417C146.864,453.719 146.625,454.261 146.875,454.562Z" style="fill:rgb(90,104,115);"/>
            </g>
        </g>
    </g>
</svg>
